<svg width="520" height="221" viewBox="0 0 520 221" fill="none" xmlns="http://www.w3.org/2000/svg">
<g clip-path="url(#clip0_1_299)">
<mask id="mask0_1_299" style="mask-type:luminance" maskUnits="userSpaceOnUse" x="183" y="0" width="155" height="221">
<path d="M337.368 0H183V220.5H337.368V0Z" fill="white"/>
</mask>
<g mask="url(#mask0_1_299)">
<path fill-rule="evenodd" clip-rule="evenodd" d="M280 36C280 33.2386 281.343 31 283 31C284.657 31 286 33.2386 286 36C286 38.7614 284.657 41 283 41C281.343 41 280 38.7614 280 36Z" fill="white"/>
<path fill-rule="evenodd" clip-rule="evenodd" d="M314 24.5C314 21.4624 315.567 19 317.5 19C319.433 19 321 21.4624 321 24.5C321 27.5376 319.433 30 317.5 30C315.567 30 314 27.5376 314 24.5Z" fill="white"/>
<path fill-rule="evenodd" clip-rule="evenodd" d="M303 36C303 33.2386 304.343 31 306 31C307.657 31 309 33.2386 309 36C309 38.7614 307.657 41 306 41C304.343 41 303 38.7614 303 36Z" fill="white"/>
<path fill-rule="evenodd" clip-rule="evenodd" d="M291 51.5C291 48.4624 292.567 46 294.5 46C296.433 46 298 48.4624 298 51.5C298 54.5376 296.433 57 294.5 57C292.567 57 291 54.5376 291 51.5Z" fill="white"/>
<path fill-rule="evenodd" clip-rule="evenodd" d="M199 51.5C199 48.4624 200.567 46 202.5 46C204.433 46 206 48.4624 206 51.5C206 54.5376 204.433 57 202.5 57C200.567 57 199 54.5376 199 51.5Z" fill="white"/>
<path fill-rule="evenodd" clip-rule="evenodd" d="M211 24.5C211 21.4624 212.343 19 214 19C215.657 19 217 21.4624 217 24.5C217 27.5376 215.657 30 214 30C212.343 30 211 27.5376 211 24.5Z" fill="white"/>
<path fill-rule="evenodd" clip-rule="evenodd" d="M222 32.5C222 29.4624 223.567 27 225.5 27C227.433 27 229 29.4624 229 32.5C229 35.5376 227.433 38 225.5 38C223.567 38 222 35.5376 222 32.5Z" fill="white"/>
<path fill-rule="evenodd" clip-rule="evenodd" d="M234 47.5C234 44.4624 235.343 42 237 42C238.657 42 240 44.4624 240 47.5C240 50.5376 238.657 53 237 53C235.343 53 234 50.5376 234 47.5Z" fill="white"/>
<path fill-rule="evenodd" clip-rule="evenodd" d="M268 17C268 14.2386 269.567 12 271.5 12C273.433 12 275 14.2386 275 17C275 19.7614 273.433 22 271.5 22C269.567 22 268 19.7614 268 17Z" fill="white"/>
<path fill-rule="evenodd" clip-rule="evenodd" d="M257 28.5C257 25.4624 258.343 23 260 23C261.657 23 263 25.4624 263 28.5C263 31.5376 261.657 34 260 34C258.343 34 257 31.5376 257 28.5Z" fill="white"/>
<path fill-rule="evenodd" clip-rule="evenodd" d="M245 40C245 37.2386 246.567 35 248.5 35C250.433 35 252 37.2386 252 40C252 42.7614 250.433 45 248.5 45C246.567 45 245 42.7614 245 40Z" fill="white"/>
<path d="M214 35C215.657 35 217 36.3429 217 38V107C217 108.657 215.657 110 214 110C212.343 110 211 108.657 211 107V38C211 36.3429 212.343 35 214 35Z" fill="white"/>
<path d="M202.5 62C204.433 62 206 63.5667 206 65.5V106.5C206 108.433 204.433 110 202.5 110C200.567 110 199 108.433 199 106.5V65.5C199 63.5667 200.567 62 202.5 62Z" fill="white"/>
<path d="M225.5 42C227.433 42 229 43.5667 229 45.5V106.5C229 108.433 227.433 110 225.5 110C223.567 110 222 108.433 222 106.5V45.5C222 43.5667 223.567 42 225.5 42Z" fill="white"/>
<path d="M237 58C238.657 58 240 59.3429 240 61V107C240 108.657 238.657 110 237 110C235.343 110 234 108.657 234 107V61C234 59.3429 235.343 58 237 58Z" fill="white"/>
<path d="M248.5 50C250.433 50 252 51.5667 252 53.5V106.5C252 108.433 250.433 110 248.5 110C246.567 110 245 108.433 245 106.5V53.5C245 51.5667 246.567 50 248.5 50Z" fill="white"/>
<path d="M260 39C261.657 39 263 40.3429 263 42V107C263 108.657 261.657 110 260 110C258.343 110 257 108.657 257 107V42C257 40.3429 258.343 39 260 39Z" fill="white"/>
<path d="M271.5 27C273.433 27 275 28.5667 275 30.5V106.5C275 108.433 273.433 110 271.5 110C269.567 110 268 108.433 268 106.5V30.5C268 28.5667 269.567 27 271.5 27Z" fill="white"/>
<path d="M283 46C284.657 46 286 47.3429 286 49V107C286 108.657 284.657 110 283 110C281.343 110 280 108.657 280 107V49C280 47.3429 281.343 46 283 46Z" fill="white"/>
<path d="M294.5 62C296.433 62 298 63.5667 298 65.5V106.5C298 108.433 296.433 110 294.5 110C292.567 110 291 108.433 291 106.5V65.5C291 63.5667 292.567 62 294.5 62Z" fill="white"/>
<path d="M306 46C307.657 46 309 47.3429 309 49V107C309 108.657 307.657 110 306 110C304.343 110 303 108.657 303 107V49C303 47.3429 304.343 46 306 46Z" fill="white"/>
<path d="M317.5 35C319.433 35 321 36.5667 321 38.5V106.5C321 108.433 319.433 110 317.5 110C315.567 110 314 108.433 314 106.5V38.5C314 36.5667 315.567 35 317.5 35Z" fill="white"/>
<path fill-rule="evenodd" clip-rule="evenodd" d="M186 119H191.007V133.856L206.507 139.856L213.007 155.356L206.007 169.356L217.007 180.356L230.507 173.356L247.007 179.856L252.007 195.356H267.007L272.007 179.856L288.507 173.356L302.007 180.356L313.507 169.356L306.007 155.356L312.507 139.356L328.007 134.356V119H333.007V137.856L316.507 143.356L312.007 155.356L319.007 170.356L302.507 186.356L288.507 178.856L275.507 184.356L270.507 199.856H248.507L243.507 184.356L230.507 178.856L216.507 186.356L199.507 170.356L207.007 155.356L202.507 143.356L186 136.856V119Z" fill="white"/>
<path fill-rule="evenodd" clip-rule="evenodd" d="M203.5 134.5C209.618 134.484 210.594 129.693 210.594 129.693H237V140H227.5L216 152L219 155.5L230 145H237V149.5H242V156L232 166V169L235 170L247 158V149.5H257V176C257 176 251.548 176.481 251.5 183C251.452 189.519 259.5 190.5 259.5 190.5C259.5 190.5 267.616 188.938 267.5 183C267.384 177.062 262 176 262 176V149.5H272V158L284 170L287 169V166L277 156V149.5H282V145H289.5L300 155L303 152L291 140H282V129.693H308.5C308.5 129.693 308.205 134.443 315.5 134.5C322.795 134.557 323.5 129.359 323.5 129.359V124.5C323.383 124.2 323.282 123.9 323.182 123.605C322.436 121.401 321.775 119.449 315.5 119.5C308.385 119.558 308.5 124 308.5 124H282V119H277V144.5H242V119H236.5V124.5H210.594C210.594 124.5 210.594 119.521 203.5 119.5C196.406 119.479 196 125 196 125V129.359C196 129.359 197.382 134.516 203.5 134.5ZM312.497 126.995C312.497 126.995 312.496 129.51 315.5 129.5C318.504 129.49 318.5 126.995 318.5 126.995C318.5 126.995 318.478 124.463 315.5 124.5C312.522 124.537 312.497 126.995 312.497 126.995ZM203.5 129.5C206.503 129.511 206.499 127.005 206.499 127.005C206.499 127.005 206.486 124.509 203.5 124.5C200.514 124.491 200.5 127.005 200.5 127.005C200.5 127.005 200.497 129.489 203.5 129.5ZM259.5 180.5C262.493 180.534 262.522 182.948 262.522 182.948C262.522 182.948 262.522 185.469 259.5 185.5C256.478 185.531 256.5 182.948 256.5 182.948C256.5 182.948 256.507 180.466 259.5 180.5Z" fill="white"/>
<path fill-rule="evenodd" clip-rule="evenodd" d="M270.96 118V134.113L270.926 134.2C270.204 136.061 269.231 137.001 268.007 137.019L260.004 137.019H252C250.808 137.038 249.821 136.101 249.038 134.211L249 134.119V118H270.96ZM254 120.979H265.961V132.019H254V120.979Z" fill="white"/>
</g>
</g>
<g clip-path="url(#clip1_1_299)">
<path fill-rule="evenodd" clip-rule="evenodd" d="M372.784 84.8773L377.434 98.2596L391.593 98.5483L380.308 107.108L384.409 120.669L372.784 112.576L361.16 120.669L365.261 107.108L353.976 98.5483L368.135 98.2596L372.784 84.8773Z" fill="white"/>
<path fill-rule="evenodd" clip-rule="evenodd" d="M494.454 29.6774L497.941 39.7142L508.56 39.9306L500.096 46.3502L503.172 56.5207L494.454 50.4515L485.735 56.5207L488.811 46.3502L480.347 39.9306L490.966 39.7142L494.454 29.6774Z" fill="white"/>
<path fill-rule="evenodd" clip-rule="evenodd" d="M495.773 136.318L496.53 139.436L499.269 137.767L497.6 140.507L500.717 141.264L497.6 142.021L499.269 144.762L496.53 143.092L495.773 146.21L495.016 143.092L492.277 144.762L493.946 142.021L490.829 141.264L493.946 140.507L492.277 137.767L495.016 139.436L495.773 136.318Z" fill="white"/>
<path fill-rule="evenodd" clip-rule="evenodd" d="M491.923 102.882L493.318 106.896L497.565 106.983L494.18 109.551L495.41 113.619L491.923 111.191L488.435 113.619L489.666 109.551L486.28 106.983L490.528 106.896L491.923 102.882Z" fill="white"/>
<path fill-rule="evenodd" clip-rule="evenodd" d="M462.658 53.4193L464.983 60.1104L472.062 60.2548L466.419 64.5345L468.47 71.3149L462.658 67.2687L456.846 71.3149L458.896 64.5345L453.253 60.2548L460.333 60.1104L462.658 53.4193Z" fill="white"/>
<path fill-rule="evenodd" clip-rule="evenodd" d="M420.82 104.662L423.091 114.017L431.308 109.008L426.301 117.229L435.652 119.501L426.301 121.772L431.308 129.993L423.091 124.984L420.82 134.34L418.55 124.984L410.332 129.993L415.339 121.772L405.988 119.501L415.339 117.229L410.332 109.008L418.55 114.017L420.82 104.662Z" fill="white"/>
<path fill-rule="evenodd" clip-rule="evenodd" d="M410.339 19.7849L411.095 22.9033L413.835 21.2336L412.166 23.974L415.283 24.7311L412.166 25.4883L413.835 28.2287L411.095 26.559L410.339 29.6774L409.582 26.559L406.843 28.2287L408.512 25.4883L405.395 24.7311L408.512 23.974L406.843 21.2336L409.582 22.9033L410.339 19.7849Z" fill="white"/>
<path fill-rule="evenodd" clip-rule="evenodd" d="M441.783 73.2042L442.691 76.9462L445.978 74.9426L443.976 78.2311L447.716 79.1396L443.976 80.0482L445.978 83.3366L442.691 81.3331L441.783 85.0751L440.875 81.3331L437.588 83.3366L439.591 80.0482L435.85 79.1396L439.591 78.2311L437.588 74.9426L440.875 76.9462L441.783 73.2042Z" fill="white"/>
<path fill-rule="evenodd" clip-rule="evenodd" d="M473.03 0L475.3 9.35502L483.518 4.34615L478.511 12.5673L487.862 14.8387L478.511 17.1101L483.518 25.3312L475.3 20.3223L473.03 29.6774L470.759 20.3223L462.542 25.3312L467.549 17.1101L458.198 14.8387L467.549 12.5673L462.542 4.34615L470.759 9.35502L473.03 0Z" fill="white"/>
<path fill-rule="evenodd" clip-rule="evenodd" d="M496.168 76.3698L497.682 82.6064L503.16 79.2672L499.823 84.7479L506.057 86.2622L499.823 87.7765L503.16 93.2572L497.682 89.918L496.168 96.1547L494.655 89.918L489.176 93.2572L492.514 87.7765L486.28 86.2622L492.514 84.7479L489.176 79.2672L494.655 82.6064L496.168 76.3698Z" fill="white"/>
<path fill-rule="evenodd" clip-rule="evenodd" d="M410.448 155.905L412.773 162.596L419.852 162.741L414.21 167.02L416.26 173.801L410.448 169.755L404.636 173.801L406.686 167.02L401.044 162.741L408.123 162.596L410.448 155.905Z" fill="white"/>
<path fill-rule="evenodd" clip-rule="evenodd" d="M435.85 149.574C435.85 147.389 437.621 145.617 439.806 145.617C441.99 145.617 443.761 147.389 443.761 149.574C443.761 151.759 441.99 153.531 439.806 153.531C437.621 153.531 435.85 151.759 435.85 149.574Z" fill="white"/>
<path d="M345.077 163.312H372.245L385.124 149.475H439.806" stroke="white" stroke-width="5"/>
<path fill-rule="evenodd" clip-rule="evenodd" d="M449.694 47.4838C449.694 45.2984 451.465 43.5268 453.649 43.5268C455.833 43.5268 457.604 45.2984 457.604 47.4838C457.604 49.6692 455.833 51.4408 453.649 51.4408C451.465 51.4408 449.694 49.6692 449.694 47.4838Z" fill="white"/>
<path fill-rule="evenodd" clip-rule="evenodd" d="M393.331 70.4343C393.331 68.2489 395.102 66.4773 397.286 66.4773C399.471 66.4773 401.242 68.2489 401.242 70.4343C401.242 72.6197 399.471 74.3913 397.286 74.3913C395.102 74.3913 393.331 72.6197 393.331 70.4343Z" fill="white"/>
<path fill-rule="evenodd" clip-rule="evenodd" d="M358.129 68.2579C358.129 66.0726 359.9 64.301 362.084 64.301C364.269 64.301 366.04 66.0726 366.04 68.2579C366.04 70.4433 364.269 72.2149 362.084 72.2149C359.9 72.2149 358.129 70.4433 358.129 68.2579Z" fill="white"/>
<path fill-rule="evenodd" clip-rule="evenodd" d="M506.057 69.2472C506.057 67.0618 507.827 65.2902 510.012 65.2902C512.196 65.2902 513.967 67.0618 513.967 69.2472C513.967 71.4326 512.196 73.2042 510.012 73.2042C507.827 73.2042 506.057 71.4326 506.057 69.2472Z" fill="white"/>
<path fill-rule="evenodd" clip-rule="evenodd" d="M448.112 22.3569C448.112 20.1716 449.882 18.4 452.067 18.4C454.251 18.4 456.022 20.1716 456.022 22.3569C456.022 24.5423 454.251 26.3139 452.067 26.3139C449.882 26.3139 448.112 24.5423 448.112 22.3569Z" fill="white"/>
<path fill-rule="evenodd" clip-rule="evenodd" d="M416.865 62.7182C416.865 60.5328 418.636 58.7612 420.82 58.7612C423.005 58.7612 424.775 60.5328 424.775 62.7182C424.775 64.9035 423.005 66.6751 420.82 66.6751C418.636 66.6751 416.865 64.9035 416.865 62.7182Z" fill="white"/>
<path fill-rule="evenodd" clip-rule="evenodd" d="M420.82 49.4623C420.82 48.3696 421.706 47.4838 422.798 47.4838C423.89 47.4838 424.775 48.3696 424.775 49.4623C424.775 50.555 423.89 51.4408 422.798 51.4408C421.706 51.4408 420.82 50.555 420.82 49.4623Z" fill="white"/>
<path fill-rule="evenodd" clip-rule="evenodd" d="M479.161 34.2279C479.161 33.1352 480.046 32.2494 481.138 32.2494C482.23 32.2494 483.116 33.1352 483.116 34.2279C483.116 35.3206 482.23 36.2064 481.138 36.2064C480.046 36.2064 479.161 35.3206 479.161 34.2279Z" fill="white"/>
<path fill-rule="evenodd" clip-rule="evenodd" d="M391.551 38.1849C391.551 37.0922 392.437 36.2064 393.529 36.2064C394.621 36.2064 395.506 37.0922 395.506 38.1849C395.506 39.2776 394.621 40.1634 393.529 40.1634C392.437 40.1634 391.551 39.2776 391.551 38.1849Z" fill="white"/>
<path fill-rule="evenodd" clip-rule="evenodd" d="M400.846 82.8988C400.846 81.8061 401.731 80.9203 402.824 80.9203C403.916 80.9203 404.801 81.8061 404.801 82.8988C404.801 83.9915 403.916 84.8773 402.824 84.8773C401.731 84.8773 400.846 83.9915 400.846 82.8988Z" fill="white"/>
<path fill-rule="evenodd" clip-rule="evenodd" d="M508.034 137.703C508.034 136.61 508.92 135.724 510.012 135.724C511.104 135.724 511.989 136.61 511.989 137.703C511.989 138.796 511.104 139.681 510.012 139.681C508.92 139.681 508.034 138.796 508.034 137.703Z" fill="white"/>
<path fill-rule="evenodd" clip-rule="evenodd" d="M456.22 153.531C456.22 152.438 457.105 151.552 458.198 151.552C459.29 151.552 460.175 152.438 460.175 153.531C460.175 154.624 459.29 155.509 458.198 155.509C457.105 155.509 456.22 154.624 456.22 153.531Z" fill="white"/>
<path fill-rule="evenodd" clip-rule="evenodd" d="M426.16 92.5934C426.16 91.5007 427.045 90.6149 428.137 90.6149C429.23 90.6149 430.115 91.5007 430.115 92.5934C430.115 93.6861 429.23 94.5719 428.137 94.5719C427.045 94.5719 426.16 93.6861 426.16 92.5934Z" fill="white"/>
<path fill-rule="evenodd" clip-rule="evenodd" d="M460.175 81.1181C460.175 80.0254 461.061 79.1396 462.153 79.1396C463.245 79.1396 464.131 80.0254 464.131 81.1181C464.131 82.2108 463.245 83.0966 462.153 83.0966C461.061 83.0966 460.175 82.2108 460.175 81.1181Z" fill="white"/>
<path fill-rule="evenodd" clip-rule="evenodd" d="M449.1 98.5289C449.1 96.8898 450.429 95.5611 452.067 95.5611C453.705 95.5611 455.033 96.8898 455.033 98.5289C455.033 100.168 453.705 101.497 452.067 101.497C450.429 101.497 449.1 100.168 449.1 98.5289Z" fill="white"/>
<path d="M345.077 139.674H387.035L401.044 124.447V99.9138L453.55 47.4838" stroke="white" stroke-width="5"/>
<path fill-rule="evenodd" clip-rule="evenodd" d="M511.989 104.464C511.989 102.279 513.76 100.507 515.945 100.507C518.129 100.507 519.9 102.279 519.9 104.464C519.9 106.65 518.129 108.421 515.945 108.421C513.76 108.421 511.989 106.65 511.989 104.464Z" fill="white"/>
<path fill-rule="evenodd" clip-rule="evenodd" d="M480.743 155.905C480.743 153.72 482.514 151.948 484.698 151.948C486.882 151.948 488.653 153.72 488.653 155.905C488.653 158.09 486.882 159.862 484.698 159.862C482.514 159.862 480.743 158.09 480.743 155.905Z" fill="white"/>
<path d="M432.188 140.806H477.084L515.945 104.662" stroke="white" stroke-width="5"/>
<path d="M446.484 171.507H484.599V155.905" stroke="white" stroke-width="5"/>
<path d="M362.287 67.2002L344.978 84.8773L345.076 165.284" stroke="white" stroke-width="5"/>
<path d="M397.303 70.349H379.586V47.4838" stroke="white" stroke-width="5"/>
<path fill-rule="evenodd" clip-rule="evenodd" d="M427.742 18.4C427.742 16.2146 429.513 14.443 431.697 14.443C433.882 14.443 435.652 16.2146 435.652 18.4C435.652 20.5853 433.882 22.3569 431.697 22.3569C429.513 22.3569 427.742 20.5853 427.742 18.4Z" fill="white"/>
<path d="M398.09 53.8173L432.093 18.4" stroke="white" stroke-width="5"/>
<path fill-rule="evenodd" clip-rule="evenodd" d="M475.601 70.4343C475.601 68.2489 477.372 66.4773 479.556 66.4773C481.741 66.4773 483.511 68.2489 483.511 70.4343C483.511 72.6197 481.741 74.3913 479.556 74.3913C477.372 74.3913 475.601 72.6197 475.601 70.4343Z" fill="white"/>
<path d="M449.238 114.827H479.556V70.4343" stroke="white" stroke-width="5"/>
</g>
<g clip-path="url(#clip2_1_299)">
<path fill-rule="evenodd" clip-rule="evenodd" d="M147.116 84.8773L142.466 98.2596L128.307 98.5483L139.592 107.108L135.491 120.669L147.116 112.576L158.74 120.669L154.639 107.108L165.924 98.5483L151.765 98.2596L147.116 84.8773Z" fill="white"/>
<path fill-rule="evenodd" clip-rule="evenodd" d="M25.4465 29.6774L21.9592 39.7142L11.3402 39.9306L19.8039 46.3502L16.7283 56.5207L25.4465 50.4515L34.1646 56.5207L31.089 46.3502L39.5528 39.9306L28.9337 39.7142L25.4465 29.6774Z" fill="white"/>
<path fill-rule="evenodd" clip-rule="evenodd" d="M24.1272 136.318L23.3704 139.436L20.6312 137.767L22.3001 140.507L19.1831 141.264L22.3001 142.021L20.6312 144.762L23.3704 143.092L24.1272 146.21L24.884 143.092L27.6232 144.762L25.9543 142.021L29.0713 141.264L25.9543 140.507L27.6232 137.767L24.884 139.436L24.1272 136.318Z" fill="white"/>
<path fill-rule="evenodd" clip-rule="evenodd" d="M27.9773 102.882L26.5824 106.896L22.3348 106.983L25.7203 109.551L24.4901 113.619L27.9773 111.191L31.4646 113.619L30.2344 109.551L33.6199 106.983L29.3723 106.896L27.9773 102.882Z" fill="white"/>
<path fill-rule="evenodd" clip-rule="evenodd" d="M57.2423 53.4193L54.9174 60.1104L47.838 60.2548L53.4806 64.5345L51.4301 71.3149L57.2423 67.2687L63.0544 71.3149L61.0039 64.5345L66.6465 60.2548L59.5671 60.1104L57.2423 53.4193Z" fill="white"/>
<path fill-rule="evenodd" clip-rule="evenodd" d="M99.0798 104.662L96.8094 114.017L88.5918 109.008L93.5986 117.229L84.2475 119.501L93.5986 121.772L88.5918 129.993L96.8094 124.984L99.0798 134.34L101.35 124.984L109.568 129.993L104.561 121.772L113.912 119.501L104.561 117.229L109.568 109.008L101.35 114.017L99.0798 104.662Z" fill="white"/>
<path fill-rule="evenodd" clip-rule="evenodd" d="M109.561 19.7849L108.805 22.9033L106.065 21.2336L107.734 23.974L104.617 24.7311L107.734 25.4883L106.065 28.2287L108.805 26.559L109.561 29.6774L110.318 26.559L113.057 28.2287L111.388 25.4883L114.505 24.7311L111.388 23.974L113.057 21.2336L110.318 22.9033L109.561 19.7849Z" fill="white"/>
<path fill-rule="evenodd" clip-rule="evenodd" d="M78.1168 73.2042L77.2086 76.9462L73.9216 74.9426L75.9243 78.2311L72.1839 79.1396L75.9243 80.0482L73.9216 83.3366L77.2086 81.3331L78.1168 85.0751L79.025 81.3331L82.312 83.3366L80.3093 80.0482L84.0497 79.1396L80.3093 78.2311L82.312 74.9426L79.025 76.9462L78.1168 73.2042Z" fill="white"/>
<path fill-rule="evenodd" clip-rule="evenodd" d="M46.8701 0L44.5997 9.35502L36.3821 4.34615L41.3889 12.5673L32.0378 14.8387L41.3889 17.1101L36.3821 25.3312L44.5997 20.3223L46.8701 29.6774L49.1405 20.3223L57.3581 25.3312L52.3514 17.1101L61.7024 14.8387L52.3514 12.5673L57.3581 4.34615L49.1405 9.35502L46.8701 0Z" fill="white"/>
<path fill-rule="evenodd" clip-rule="evenodd" d="M23.7317 76.3698L22.2181 82.6064L16.7397 79.2672L20.0775 84.7479L13.8435 86.2622L20.0775 87.7765L16.7397 93.2572L22.2181 89.918L23.7317 96.1547L25.2453 89.918L30.7237 93.2572L27.3859 87.7765L33.6199 86.2622L27.3859 84.7479L30.7237 79.2672L25.2453 82.6064L23.7317 76.3698Z" fill="white"/>
<path fill-rule="evenodd" clip-rule="evenodd" d="M109.452 155.905L107.127 162.596L100.048 162.741L105.69 167.02L103.64 173.801L109.452 169.755L115.264 173.801L113.214 167.02L118.856 162.741L111.777 162.596L109.452 155.905Z" fill="white"/>
<path fill-rule="evenodd" clip-rule="evenodd" d="M84.0497 149.574C84.0497 147.389 82.2789 145.617 80.0945 145.617C77.91 145.617 76.1392 147.389 76.1392 149.574C76.1392 151.759 77.91 153.531 80.0945 153.531C82.2789 153.531 84.0497 151.759 84.0497 149.574Z" fill="white"/>
<path d="M174.823 163.312H147.655L134.776 149.475H80.0945" stroke="white" stroke-width="5"/>
<path fill-rule="evenodd" clip-rule="evenodd" d="M70.2063 47.4838C70.2063 45.2984 68.4354 43.5268 66.251 43.5268C64.0665 43.5268 62.2957 45.2984 62.2957 47.4838C62.2957 49.6692 64.0665 51.4408 66.251 51.4408C68.4354 51.4408 70.2063 49.6692 70.2063 47.4838Z" fill="white"/>
<path fill-rule="evenodd" clip-rule="evenodd" d="M126.569 70.4343C126.569 68.2489 124.798 66.4773 122.614 66.4773C120.429 66.4773 118.658 68.2489 118.658 70.4343C118.658 72.6197 120.429 74.3913 122.614 74.3913C124.798 74.3913 126.569 72.6197 126.569 70.4343Z" fill="white"/>
<path fill-rule="evenodd" clip-rule="evenodd" d="M161.771 68.2579C161.771 66.0726 160 64.301 157.816 64.301C155.631 64.301 153.86 66.0726 153.86 68.2579C153.86 70.4433 155.631 72.2149 157.816 72.2149C160 72.2149 161.771 70.4433 161.771 68.2579Z" fill="white"/>
<path fill-rule="evenodd" clip-rule="evenodd" d="M13.8435 69.2472C13.8435 67.0618 12.0726 65.2902 9.88819 65.2902C7.70375 65.2902 5.93291 67.0618 5.93291 69.2472C5.93291 71.4326 7.70375 73.2042 9.88819 73.2042C12.0726 73.2042 13.8435 71.4326 13.8435 69.2472Z" fill="white"/>
<path fill-rule="evenodd" clip-rule="evenodd" d="M71.7884 22.3569C71.7884 20.1716 70.0175 18.4 67.8331 18.4C65.6486 18.4 63.8778 20.1716 63.8778 22.3569C63.8778 24.5423 65.6486 26.3139 67.8331 26.3139C70.0175 26.3139 71.7884 24.5423 71.7884 22.3569Z" fill="white"/>
<path fill-rule="evenodd" clip-rule="evenodd" d="M103.035 62.7182C103.035 60.5328 101.264 58.7612 99.0798 58.7612C96.8954 58.7612 95.1245 60.5328 95.1245 62.7182C95.1245 64.9035 96.8954 66.6751 99.0798 66.6751C101.264 66.6751 103.035 64.9035 103.035 62.7182Z" fill="white"/>
<path fill-rule="evenodd" clip-rule="evenodd" d="M99.0798 49.4623C99.0798 48.3696 98.1944 47.4838 97.1022 47.4838C96.0099 47.4838 95.1245 48.3696 95.1245 49.4623C95.1245 50.555 96.0099 51.4408 97.1022 51.4408C98.1944 51.4408 99.0798 50.555 99.0798 49.4623Z" fill="white"/>
<path fill-rule="evenodd" clip-rule="evenodd" d="M40.7394 34.2279C40.7394 33.1352 39.854 32.2494 38.7618 32.2494C37.6695 32.2494 36.7841 33.1352 36.7841 34.2279C36.7841 35.3206 37.6695 36.2064 38.7618 36.2064C39.854 36.2064 40.7394 35.3206 40.7394 34.2279Z" fill="white"/>
<path fill-rule="evenodd" clip-rule="evenodd" d="M128.349 38.1849C128.349 37.0922 127.463 36.2064 126.371 36.2064C125.279 36.2064 124.394 37.0922 124.394 38.1849C124.394 39.2776 125.279 40.1634 126.371 40.1634C127.463 40.1634 128.349 39.2776 128.349 38.1849Z" fill="white"/>
<path fill-rule="evenodd" clip-rule="evenodd" d="M119.054 82.8988C119.054 81.8061 118.169 80.9203 117.076 80.9203C115.984 80.9203 115.099 81.8061 115.099 82.8988C115.099 83.9915 115.984 84.8773 117.076 84.8773C118.169 84.8773 119.054 83.9915 119.054 82.8988Z" fill="white"/>
<path fill-rule="evenodd" clip-rule="evenodd" d="M11.8658 137.703C11.8658 136.61 10.9804 135.724 9.8882 135.724C8.79599 135.724 7.91056 136.61 7.91056 137.703C7.91056 138.796 8.79599 139.681 9.8882 139.681C10.9804 139.681 11.8658 138.796 11.8658 137.703Z" fill="white"/>
<path fill-rule="evenodd" clip-rule="evenodd" d="M63.68 153.531C63.68 152.438 62.7946 151.552 61.7024 151.552C60.6102 151.552 59.7248 152.438 59.7248 153.531C59.7248 154.624 60.6102 155.509 61.7024 155.509C62.7946 155.509 63.68 154.624 63.68 153.531Z" fill="white"/>
<path fill-rule="evenodd" clip-rule="evenodd" d="M93.7402 92.5934C93.7402 91.5007 92.8548 90.6149 91.7625 90.6149C90.6703 90.6149 89.7849 91.5007 89.7849 92.5934C89.7849 93.6861 90.6703 94.5719 91.7625 94.5719C92.8548 94.5719 93.7402 93.6861 93.7402 92.5934Z" fill="white"/>
<path fill-rule="evenodd" clip-rule="evenodd" d="M59.7248 81.1181C59.7248 80.0254 58.8393 79.1396 57.7471 79.1396C56.6549 79.1396 55.7695 80.0254 55.7695 81.1181C55.7695 82.2108 56.6549 83.0966 57.7471 83.0966C58.8393 83.0966 59.7248 82.2108 59.7248 81.1181Z" fill="white"/>
<path fill-rule="evenodd" clip-rule="evenodd" d="M70.7995 98.5289C70.7995 96.8898 69.4714 95.5611 67.8331 95.5611C66.1947 95.5611 64.8666 96.8898 64.8666 98.5289C64.8666 100.168 66.1947 101.497 67.8331 101.497C69.4714 101.497 70.7995 100.168 70.7995 98.5289Z" fill="white"/>
<path d="M174.823 139.674H132.865L118.856 124.447V99.9138L66.3499 47.4838" stroke="white" stroke-width="5"/>
<path fill-rule="evenodd" clip-rule="evenodd" d="M7.91055 104.464C7.91055 102.279 6.13972 100.507 3.95527 100.507C1.77083 100.507 -1.14441e-05 102.279 -1.14441e-05 104.464C-1.14441e-05 106.65 1.77083 108.421 3.95527 108.421C6.13972 108.421 7.91055 106.65 7.91055 104.464Z" fill="white"/>
<path fill-rule="evenodd" clip-rule="evenodd" d="M39.1573 155.905C39.1573 153.72 37.3865 151.948 35.202 151.948C33.0176 151.948 31.2467 153.72 31.2467 155.905C31.2467 158.09 33.0176 159.862 35.202 159.862C37.3865 159.862 39.1573 158.09 39.1573 155.905Z" fill="white"/>
<path d="M87.7115 140.806H42.8159L3.95528 104.662" stroke="white" stroke-width="5"/>
<path d="M73.4164 171.507H35.3009V155.905" stroke="white" stroke-width="5"/>
<path d="M157.613 67.2002L174.922 84.8773L174.824 165.284" stroke="white" stroke-width="5"/>
<path d="M122.597 70.349H140.314V47.4838" stroke="white" stroke-width="5"/>
<path fill-rule="evenodd" clip-rule="evenodd" d="M92.1581 18.4C92.1581 16.2146 90.3872 14.443 88.2028 14.443C86.0184 14.443 84.2475 16.2146 84.2475 18.4C84.2475 20.5853 86.0184 22.3569 88.2028 22.3569C90.3872 22.3569 92.1581 20.5853 92.1581 18.4Z" fill="white"/>
<path d="M121.81 53.8173L87.8073 18.4" stroke="white" stroke-width="5"/>
<path fill-rule="evenodd" clip-rule="evenodd" d="M44.2991 70.4343C44.2991 68.2489 42.5283 66.4773 40.3439 66.4773C38.1594 66.4773 36.3886 68.2489 36.3886 70.4343C36.3886 72.6197 38.1594 74.3913 40.3439 74.3913C42.5283 74.3913 44.2991 72.6197 44.2991 70.4343Z" fill="white"/>
<path d="M70.6623 114.827H40.3439V70.4343" stroke="white" stroke-width="5"/>
</g>
<defs>
<clipPath id="clip0_1_299">
<rect width="154.368" height="220.5" fill="white" transform="translate(183)"/>
</clipPath>
<clipPath id="clip1_1_299">
<rect width="176.9" height="175.69" fill="white" transform="translate(343)"/>
</clipPath>
<clipPath id="clip2_1_299">
<rect width="176.9" height="175.69" fill="white" transform="matrix(-1 0 0 1 176.9 0)"/>
</clipPath>
</defs>
</svg>
