<?xml version="1.0" encoding="utf-8"?>
<svg width="154.368" height="220.5" viewBox="0 0 154.368 220.5" fill="none" xmlns="http://www.w3.org/2000/svg">
  <defs>
    <clipPath id="clip_path_1">
      <rect width="154.368" height="220.5" />
    </clipPath>
  </defs>
  <g>
    <rect width="154.368" height="220.5" />
    <g id="SingleElement">
      <g id="Group">
        <rect id="Rectangle" width="154.368" height="220.5" />
        <g clip-path="url(#clip_path_1)">
          <rect width="154.368" height="220.5" />
          <g id="Group">
            <rect id="Rectangle" width="154.368" height="220.5" />
            <g id="Group">
              <rect id="Rectangle" width="154.368" height="220.5" />
              <path id="Oval" d="M0 5C0 2.23858 1.34315 0 3 0C4.65685 0 6 2.23858 6 5C6 7.76142 4.65685 10 3 10C1.34315 10 0 7.76142 0 5C0 5 0 5 0 5C0 5 0 5 0 5C0 5 0 5 0 5Z" fill="#FFFFFF" fill-rule="evenodd" transform="translate(98 52)" />
              <path id="Oval#1" d="M0 5.5C0 2.46243 1.567 0 3.5 0C5.433 0 7 2.46243 7 5.5C7 8.53757 5.433 11 3.5 11C1.567 11 0 8.53757 0 5.5C0 5.5 0 5.5 0 5.5C0 5.5 0 5.5 0 5.5C0 5.5 0 5.5 0 5.5Z" fill="#FFFFFF" fill-rule="evenodd" transform="translate(132 40)" />
              <path id="Oval#2" d="M0 5C0 2.23858 1.34315 0 3 0C4.65685 0 6 2.23858 6 5C6 7.76142 4.65685 10 3 10C1.34315 10 0 7.76142 0 5C0 5 0 5 0 5C0 5 0 5 0 5C0 5 0 5 0 5Z" fill="#FFFFFF" fill-rule="evenodd" transform="translate(121 52)" />
              <path id="Oval#3" d="M0 5.5C0 2.46243 1.567 0 3.5 0C5.433 0 7 2.46243 7 5.5C7 8.53757 5.433 11 3.5 11C1.567 11 0 8.53757 0 5.5C0 5.5 0 5.5 0 5.5C0 5.5 0 5.5 0 5.5C0 5.5 0 5.5 0 5.5Z" fill="#FFFFFF" fill-rule="evenodd" transform="translate(109 67)" />
              <path id="Oval#4" d="M0 5.5C0 2.46243 1.567 0 3.5 0C5.433 0 7 2.46243 7 5.5C7 8.53757 5.433 11 3.5 11C1.567 11 0 8.53757 0 5.5C0 5.5 0 5.5 0 5.5C0 5.5 0 5.5 0 5.5C0 5.5 0 5.5 0 5.5Z" fill="#FFFFFF" fill-rule="evenodd" transform="translate(17 67)" />
              <path id="Oval#5" d="M0 5.5C0 2.46243 1.34315 0 3 0C4.65685 0 6 2.46243 6 5.5C6 8.53757 4.65685 11 3 11C1.34315 11 0 8.53757 0 5.5C0 5.5 0 5.5 0 5.5C0 5.5 0 5.5 0 5.5C0 5.5 0 5.5 0 5.5Z" fill="#FFFFFF" fill-rule="evenodd" transform="translate(29 40)" />
              <path id="Oval#6" d="M0 5.5C0 2.46243 1.567 0 3.5 0C5.433 0 7 2.46243 7 5.5C7 8.53757 5.433 11 3.5 11C1.567 11 0 8.53757 0 5.5C0 5.5 0 5.5 0 5.5C0 5.5 0 5.5 0 5.5C0 5.5 0 5.5 0 5.5Z" fill="#FFFFFF" fill-rule="evenodd" transform="translate(40 48)" />
              <path id="Oval#7" d="M0 5.5C0 2.46243 1.34315 0 3 0C4.65685 0 6 2.46243 6 5.5C6 8.53757 4.65685 11 3 11C1.34315 11 0 8.53757 0 5.5C0 5.5 0 5.5 0 5.5C0 5.5 0 5.5 0 5.5C0 5.5 0 5.5 0 5.5Z" fill="#FFFFFF" fill-rule="evenodd" transform="translate(52 63)" />
              <path id="Oval#8" d="M0 5C0 2.23858 1.567 0 3.5 0C5.433 0 7 2.23858 7 5C7 7.76142 5.433 10 3.5 10C1.567 10 0 7.76142 0 5C0 5 0 5 0 5C0 5 0 5 0 5C0 5 0 5 0 5Z" fill="#FFFFFF" fill-rule="evenodd" transform="translate(86 33)" />
              <path id="Oval#9" d="M0 5.5C0 2.46243 1.34315 0 3 0C4.65685 0 6 2.46243 6 5.5C6 8.53757 4.65685 11 3 11C1.34315 11 0 8.53757 0 5.5C0 5.5 0 5.5 0 5.5C0 5.5 0 5.5 0 5.5C0 5.5 0 5.5 0 5.5Z" fill="#FFFFFF" fill-rule="evenodd" transform="translate(75 44)" />
              <path id="Oval#10" d="M0 5C0 2.23858 1.567 0 3.5 0C5.433 0 7 2.23858 7 5C7 7.76142 5.433 10 3.5 10C1.567 10 0 7.76142 0 5C0 5 0 5 0 5C0 5 0 5 0 5C0 5 0 5 0 5Z" fill="#FFFFFF" fill-rule="evenodd" transform="translate(63 56)" />
              <path id="Rectangle#1" d="M3 0C4.65708 0 6 1.34292 6 3C6 3 6 72 6 72C6 73.6571 4.65708 75 3 75C3 75 3 75 3 75C1.34292 75 0 73.6571 0 72C0 72 0 3 0 3C0 1.34292 1.34292 0 3 0C3 0 3 0 3 0C3 0 3 0 3 0C3 0 3 0 3 0Z" fill="#FFFFFF" transform="translate(29 56)" />
              <path id="Rectangle#2" d="M3.5 0C5.43326 0 7 1.56674 7 3.5C7 3.5 7 44.5 7 44.5C7 46.4333 5.43326 48 3.5 48C3.5 48 3.5 48 3.5 48C1.56674 48 0 46.4333 0 44.5C0 44.5 0 3.5 0 3.5C0 1.56674 1.56674 0 3.5 0C3.5 0 3.5 0 3.5 0C3.5 0 3.5 0 3.5 0C3.5 0 3.5 0 3.5 0Z" fill="#FFFFFF" transform="translate(17 83)" />
              <path id="Rectangle#3" d="M3.5 0C5.43326 0 7 1.56674 7 3.5C7 3.5 7 64.5 7 64.5C7 66.4333 5.43326 68 3.5 68C3.5 68 3.5 68 3.5 68C1.56674 68 0 66.4333 0 64.5C0 64.5 0 3.5 0 3.5C0 1.56674 1.56674 0 3.5 0C3.5 0 3.5 0 3.5 0C3.5 0 3.5 0 3.5 0C3.5 0 3.5 0 3.5 0Z" fill="#FFFFFF" transform="translate(40 63)" />
              <path id="Rectangle#4" d="M3 0C4.65708 0 6 1.34292 6 3C6 3 6 49 6 49C6 50.6571 4.65708 52 3 52C3 52 3 52 3 52C1.34292 52 0 50.6571 0 49C0 49 0 3 0 3C0 1.34292 1.34292 0 3 0C3 0 3 0 3 0C3 0 3 0 3 0C3 0 3 0 3 0Z" fill="#FFFFFF" transform="translate(52 79)" />
              <path id="Rectangle#5" d="M3.5 0C5.43326 0 7 1.56674 7 3.5C7 3.5 7 56.5 7 56.5C7 58.4333 5.43326 60 3.5 60C3.5 60 3.5 60 3.5 60C1.56674 60 0 58.4333 0 56.5C0 56.5 0 3.5 0 3.5C0 1.56674 1.56674 0 3.5 0C3.5 0 3.5 0 3.5 0C3.5 0 3.5 0 3.5 0C3.5 0 3.5 0 3.5 0Z" fill="#FFFFFF" transform="translate(63 71)" />
              <path id="Rectangle#6" d="M3 0C4.65708 0 6 1.34292 6 3C6 3 6 68 6 68C6 69.6571 4.65708 71 3 71C3 71 3 71 3 71C1.34292 71 0 69.6571 0 68C0 68 0 3 0 3C0 1.34292 1.34292 0 3 0C3 0 3 0 3 0C3 0 3 0 3 0C3 0 3 0 3 0Z" fill="#FFFFFF" transform="translate(75 60)" />
              <path id="Rectangle#7" d="M3.5 0C5.43326 0 7 1.56674 7 3.5C7 3.5 7 79.5 7 79.5C7 81.4333 5.43326 83 3.5 83C3.5 83 3.5 83 3.5 83C1.56674 83 0 81.4333 0 79.5C0 79.5 0 3.5 0 3.5C0 1.56674 1.56674 0 3.5 0C3.5 0 3.5 0 3.5 0C3.5 0 3.5 0 3.5 0C3.5 0 3.5 0 3.5 0Z" fill="#FFFFFF" transform="translate(86 48)" />
              <path id="Rectangle#8" d="M3 0C4.65708 0 6 1.34292 6 3C6 3 6 61 6 61C6 62.6571 4.65708 64 3 64C3 64 3 64 3 64C1.34292 64 0 62.6571 0 61C0 61 0 3 0 3C0 1.34292 1.34292 0 3 0C3 0 3 0 3 0C3 0 3 0 3 0C3 0 3 0 3 0Z" fill="#FFFFFF" transform="translate(98 67)" />
              <path id="Rectangle#9" d="M3.5 0C5.43326 0 7 1.56674 7 3.5C7 3.5 7 44.5 7 44.5C7 46.4333 5.43326 48 3.5 48C3.5 48 3.5 48 3.5 48C1.56674 48 0 46.4333 0 44.5C0 44.5 0 3.5 0 3.5C0 1.56674 1.56674 0 3.5 0C3.5 0 3.5 0 3.5 0C3.5 0 3.5 0 3.5 0C3.5 0 3.5 0 3.5 0Z" fill="#FFFFFF" transform="translate(109 83)" />
              <path id="Rectangle#10" d="M3 0C4.65708 0 6 1.34292 6 3C6 3 6 61 6 61C6 62.6571 4.65708 64 3 64C3 64 3 64 3 64C1.34292 64 0 62.6571 0 61C0 61 0 3 0 3C0 1.34292 1.34292 0 3 0C3 0 3 0 3 0C3 0 3 0 3 0C3 0 3 0 3 0Z" fill="#FFFFFF" transform="translate(121 67)" />
              <path id="Rectangle#11" d="M3.5 0C5.43326 0 7 1.56674 7 3.5C7 3.5 7 71.5 7 71.5C7 73.4333 5.43326 75 3.5 75C3.5 75 3.5 75 3.5 75C1.56674 75 0 73.4333 0 71.5C0 71.5 0 3.5 0 3.5C0 1.56674 1.56674 0 3.5 0C3.5 0 3.5 0 3.5 0C3.5 0 3.5 0 3.5 0C3.5 0 3.5 0 3.5 0Z" fill="#FFFFFF" transform="translate(132 56)" />
              <path id="Vector#4" d="M0 0L5.00661 0L5.00661 14.8562L20.5066 20.8562L27.0066 36.3562L20.0066 50.3562L31.0066 61.3562L44.5066 54.3562L61.0066 60.8562L66.0066 76.3562L81.0066 76.3562L86.0066 60.8562L102.507 54.3562L116.007 61.3562L127.507 50.3562L120.007 36.3562L126.507 20.3562L142.007 15.3562L142.007 0L147.007 0L147.007 18.8562L130.507 24.3562L126.007 36.3562L133.007 51.3562L116.507 67.3562L102.507 59.8562L89.5066 65.3562L84.5066 80.8562L62.5066 80.8562L57.5066 65.3562L44.5066 59.8562L30.5066 67.3562L13.5066 51.3562L21.0066 36.3562L16.5066 24.3562L0 17.8562L0 0L0 0L0 0Z" fill="#FFFFFF" fill-rule="evenodd" stroke-width="0" stroke="#FFFFFF" transform="translate(4 140)" />
              <path id="Vector Difference#2" d="M7.50001 15.5C13.6183 15.4838 14.5941 10.6927 14.5941 10.6927C14.5941 10.6927 41 10.6927 41 10.6927C41 10.6927 41 21 41 21L31.5 21L20 33L23 36.5L34 26L41 26L41 30.5L46 30.5L46 37L36 47L36 50L39 51L51 39L51 30.5C51 30.5 61 30.5 61 30.5C61 30.5 61 57 61 57C61 57 55.5482 57.4814 55.5 64C55.4518 70.5187 63.5 71.5 63.5 71.5C63.5 71.5 71.6158 69.9376 71.5 64C71.3842 58.0624 66 57 66 57C66 57 66 30.5 66 30.5C66 30.5 76 30.5 76 30.5L76 39L88 51L91 50L91 47L81 37L81 30.5L86 30.5L86 26L93.5 26L104 36L107 33L95 21L86 21C86 21 86 10.6927 86 10.6927C86 10.6927 112.5 10.6927 112.5 10.6927C112.5 10.6927 112.205 15.4425 119.5 15.5C126.795 15.5575 127.5 10.3589 127.5 10.3589C127.5 10.3589 127.5 5.5 127.5 5.5C127.383 5.20003 127.282 4.90034 127.182 4.60515C126.436 2.4014 125.775 0.448532 119.5 0.5C112.385 0.558365 112.5 5 112.5 5C112.5 5 86 5 86 5C86 5 86 0 86 0L81 0L81 25.5L46 25.5L46 0L40.5 0C40.5 0 40.5 5.5 40.5 5.5C40.5 5.5 14.5941 5.5 14.5941 5.5C14.5941 5.5 14.5941 0.521194 7.50001 0.5C0.405873 0.478821 0 6 0 6C0 6 0 10.3589 0 10.3589C0 10.3589 1.38171 15.5163 7.50001 15.5C7.50001 15.5 7.50001 15.5 7.50001 15.5C7.50001 15.5 7.50001 15.5 7.50001 15.5ZM116.497 7.99461C116.497 7.99461 116.496 10.5098 119.5 10.5C122.504 10.4902 122.5 7.99461 122.5 7.99461C122.5 7.99461 122.478 5.46332 119.5 5.5C116.522 5.53667 116.497 7.99461 116.497 7.99461C116.497 7.99461 116.497 7.99461 116.497 7.99461C116.497 7.99461 116.497 7.99461 116.497 7.99461ZM7.50001 10.5C10.5033 10.5112 10.499 8.00514 10.499 8.00514C10.499 8.00514 10.4861 5.5085 7.50001 5.5C4.51396 5.4915 4.5 8.00514 4.5 8.00514C4.5 8.00514 4.49676 10.4888 7.50001 10.5C7.50001 10.5 7.50001 10.5 7.50001 10.5C7.50001 10.5 7.50001 10.5 7.50001 10.5ZM63.5 61.5C66.4928 61.5335 66.522 63.9478 66.522 63.9478C66.522 63.9478 66.522 66.4688 63.5 66.5C60.478 66.5312 60.5 63.9478 60.5 63.9478C60.5 63.9478 60.5073 61.4665 63.5 61.5C63.5 61.5 63.5 61.5 63.5 61.5C63.5 61.5 63.5 61.5 63.5 61.5Z" fill="#FFFFFF" fill-rule="evenodd" stroke-width="0" stroke="#FFFFFF" transform="translate(14 140)" />
              <path id="Vector Difference#3" d="M21.9602 0C21.9602 0 21.9602 16.1129 21.9602 16.1129C21.9602 16.1129 21.9263 16.2002 21.9263 16.2002C21.2037 18.0613 20.2308 19.0009 19.0075 19.0192C19.0075 19.0192 11.004 19.0193 11.004 19.0193C11.004 19.0193 3 19.0193 3 19.0193C1.80814 19.0376 0.820816 18.1014 0.0380249 16.2105C0.0380249 16.2105 0.0379715 16.2104 0.0379715 16.2104C0.0379715 16.2104 0 16.1186 0 16.1186L0 0L21.9602 0L21.9602 0L21.9602 0ZM5 2.9787L16.9611 2.9787L16.9611 14.0193L5 14.0193L5 2.9787L5 2.9787L5 2.9787Z" fill="#FFFFFF" fill-rule="evenodd" stroke-width="0" stroke="#FFFFFF" transform="translate(67 139)" />
            </g>
          </g>
        </g>
      </g>
    </g>
  </g>
</svg>