<?xml version="1.0" encoding="utf-8"?>
<svg width="1796" height="1814" viewBox="0 0 1796 1814" fill="none" xmlns="http://www.w3.org/2000/svg">
  <defs>
    <clipPath id="clip_path_1">
      <rect width="1796" height="1814" />
    </clipPath>
  </defs>
  <g clip-path="url(#clip_path_1)">
    <rect width="1796" height="1814" />
    <path id="Shape" d="M670 179.602L782.002 0L782 140.003L667.401 266.603L552 140.002L552 0.00012207L670 179.602ZM604.001 254.603L607.8 327.603L392.001 456.403L202.8 462.603L110 388.003L110 382.603L196.8 382.603L284.6 379.803L365.601 353.003L302 334.403L44.2 324.003L0 264.603L111.4 193.403L551.001 190.603L604.001 254.603ZM726.999 253.603L723.2 326.603L939 455.403L1128.2 461.603L1221 387.003L1221 381.603L1134.2 381.603L1046.4 378.803L965.399 352.003L1029 333.403L1286.8 323.003L1331 263.603L1219.6 192.403L779.999 189.603L726.999 253.603ZM723.001 492.402L723.001 585.603L667 514.603L608 585.803L608 492.402L667 325.102L723.001 492.402ZM546.224 585.603L321.623 771.603L264.423 746.203L308.023 666.803L233.714 729.784L162 700.009L264.423 579.603L604.624 375.203L608.023 379.602L546.224 585.603ZM784.776 585.603L1009.38 771.603L1066.58 746.203L1022.98 666.803L1097.29 729.784L1169 700.009L1066.58 579.603L726.376 375.203L722.977 379.602L784.776 585.603ZM667 691.604L725.2 640.37L725.2 1340L696 1413.6L686 1404.8L686 820.603L674 798.003L659.8 798.003L648.2 820.603L648 1405.4L634 1413.6L609.2 1340L609.2 640.859L667 691.604Z" fill="#000000" transform="matrix(1 0 0 -1 228 1496)" />
    <path id="Shape" d="M0 907L0 1814L898 1814L1796 1814L1796 907L1796 0L898 0L0 0.000244141L0 907L0 907ZM898 261.999L1010 82.397L1010 222.4L895.401 349L780 222.399L780 82.3972L898 261.999ZM842.001 336L845.8 409L630.001 537.8L440.8 544L348 469.4L348 464L434.8 464L522.6 461.2L603.601 434.4L540 415.8L282.2 405.4L238 346L349.4 274.8L789.001 272L842.001 336ZM951.001 574.799L951.001 668L895 597L836 668.2L836 574.799L895 407.499L951.001 574.799ZM784.6 668L560 854L502.8 828.6L546.4 749.2L472.091 812.181L400.377 782.406L502.8 662L843 457.6L846.4 462L784.6 668ZM895 774.001L953.2 722.768L953.2 1422.4L924 1496L914 1487.2L914 903L902 880.4L887.8 880.4L876.2 903L876 1487.8L862 1496L837.2 1422.4L837.2 723.256L895 774.001Z" fill="#000000" transform="matrix(0.5 0.866 0.866 -0.5 1010.515 -1750.264)" />
    <path id="Shape" d="M0.000488281 907L0.000488281 1814L898 1814L1796 1814L1796 907L1796 0.000488281L898 0L0 0.000488281L0.000488281 907L0.000488281 907ZM898 261.999L1010 82.3975L1010 222.4L895.401 349L780 222.399L780.001 82.3975L898 261.999ZM842.001 336L845.801 409L630.001 537.801L440.801 544L348.001 469.401L348 464L434.801 464L522.601 461.2L603.601 434.4L540.001 415.801L282.2 405.4L238 346L349.4 274.8L789.001 272L842.001 336ZM951.001 574.799L951.001 668L895 597.001L836 668.199L836 574.799L895.001 407.5L951.001 574.799ZM784.601 668L560 854L502.801 828.601L546.4 749.2L472.091 812.181L400.377 782.406L502.801 662L843 457.601L846.4 462L784.601 668ZM895 774.001L953.201 722.768L953.201 1422.4L924 1496L914 1487.2L914.001 903L902.001 880.4L887.801 880.4L876.201 903L876 1487.8L862 1496L837.201 1422.4L837.201 723.256L895 774.001Z" fill="#000000" transform="matrix(-0.5 0.866 0.866 0.5 4602.515 -2657.263)" />
    <path id="Shape" d="M0 907L0 1814L898 1814L1796 1814L1796 907L1796 0L898 0L0 0L0 907L0 907ZM898 261.999L1010 82.3969L1010 222.4L895.401 349L780 222.398L780 82.397L898 261.999ZM842.001 336L845.8 409L630 537.8L440.8 544L348 469.4L348 464L434.8 464L522.601 461.2L603.601 434.4L540 415.8L282.2 405.4L238 346L349.4 274.8L789.001 272L842.001 336ZM951.001 574.799L951 668L895 597L836 668.199L836 574.799L895 407.499L951.001 574.799ZM784.6 668L560 854L502.8 828.6L546.4 749.2L472.091 812.181L400.377 782.406L502.8 662L843 457.6L846.4 461.999L784.6 668ZM895 774.001L953.2 722.767L953.2 1422.4L924 1496L914 1487.2L914 903L902 880.4L887.8 880.4L876.2 903L876 1487.8L862 1496L837.2 1422.4L837.2 723.256L895 774.001Z" fill="#000000" transform="matrix(-1 0 0 1 7184 0)" />
    <path id="Shape" d="M0 907L0 1814L898 1814L1796 1814L1796 907L1796 0L898 0L0 0L0 907L0 907ZM898 261.999L1010 82.397L1010 222.4L895.401 349L780 222.398L780 82.397L898 261.999ZM842.001 336L845.801 409L630.001 537.8L440.801 544L348 469.4L348 464L434.801 464L522.601 461.2L603.601 434.4L540 415.8L282.2 405.4L238 346L349.4 274.8L789.001 272L842.001 336ZM951.001 574.799L951.001 668L895 597L836 668.199L836 574.799L895 407.499L951.001 574.799ZM784.601 668L560 854L502.8 828.6L546.4 749.2L472.091 812.181L400.377 782.406L502.8 662L843.001 457.6L846.4 462L784.601 668ZM895 774.001L953.2 722.767L953.2 1422.4L924 1496L914 1487.2L914 903L902 880.399L887.8 880.4L876.2 903L876 1487.8L862 1496L837.2 1422.4L837.2 723.255L895 774.001Z" fill="#000000" transform="matrix(-0.5 -0.866 -0.866 0.5 6173.485 3564.263)" />
    <path id="Shape" d="M0 907L0 1814L898 1814L1796 1814L1796 907L1796 0L898 0L0 0L0 907L0 907ZM898 261.999L1010 82.397L1010 222.4L895.401 349L780 222.398L780 82.397L898 261.999ZM842.001 336L845.8 409L630.001 537.8L440.8 544L348 469.4L348 464L434.8 464L522.601 461.2L603.601 434.4L540 415.8L282.2 405.4L238 346L349.4 274.8L789.001 272L842.001 336ZM951.001 574.799L951.001 668L895 597L836 668.199L836 574.799L895.001 407.499L951.001 574.799ZM784.6 668L560 854L502.8 828.6L546.4 749.2L472.091 812.181L400.377 782.406L502.8 662L843 457.6L846.4 461.999L784.6 668ZM895 774.001L953.2 722.767L953.2 1422.4L924 1496L914 1487.2L914 903L902 880.4L887.801 880.4L876.2 903L876 1487.8L862 1496L837.2 1422.4L837.2 723.256L895 774.001Z" fill="#000000" transform="matrix(0.5 -0.866 -0.866 -0.5 2581.486 4471.264)" />
  </g>
</svg>